<svg xmlns="http://www.w3.org/2000/svg" viewBox="381.5 -71.5 300 300">
  <!-- Fond sombre (supprime cette ligne si tu préfères un fond transparent) -->
  <rect x="381.5" y="-71.5" width="300" height="300" rx="60" fill="#121212"/>
  
  <!-- Symbole Central -->
  <g id="Logo_Favicon">
    <polyline points="470.4 58.39 533.31 4.86 626.16 4.86 603.16 24.43 547.89 24.43 507.98 58.39" style="fill:#fff;"/>
    <polyline points="464.24 63.63 432.24 90.86 407.49 111.92 511.83 111.92 523.95 101.61 511.32 90.86 469.82 90.86 501.82 63.63" style="fill:#fff;"/>
    <polyline points="592 103.22 557.17 132.86 534.51 152.14 440.83 152.14 463.49 132.86 527.45 132.86 562.28 103.22" style="fill:#fff;"/>
    <polyline points="568.44 97.98 601.63 69.74 555.87 69.74 543.32 59.06 555.08 49.06 655.66 49.06 631.35 69.74 598.16 97.98" style="fill:#fff;"/>
  </g>
</svg>
