<?xml version="1.0" encoding="UTF-8"?><svg xmlns="http://www.w3.org/2000/svg" xmlns:xlink="http://www.w3.org/1999/xlink" viewBox="0 0 1085.06 156.58"><defs><radialGradient id="Dégradé_sans_nom_3624" cx="195.27" cy="78.29" fx="195.27" fy="78.29" r="290.12" gradientUnits="userSpaceOnUse"><stop offset="0" stop-color="#ffc130"/><stop offset=".5" stop-color="#ffd21f"/><stop offset="1" stop-color="#ffdd1f"/></radialGradient><radialGradient id="Dégradé_sans_nom_4696" cx="882.61" cy="78.29" fx="882.61" fy="78.29" r="329.76" gradientUnits="userSpaceOnUse"><stop offset="0" stop-color="#ff66ed"/><stop offset=".5" stop-color="#c068ed"/><stop offset="1" stop-color="#009dff"/></radialGradient></defs><g id="V07"><path id="Mana" d="M63.8,2.13h36.65v152.33h-25.61V60.52l-14.18,93.94h-22.57l-14.18-93.94v93.94H0V2.13h36.65l13.57,97.15L63.8,2.13ZM174.82,2.13l24.81,152.33h-26.96l-4.19-29.13h-23.61l-4.25,29.13h-25.26L140.16,2.13h34.66ZM156.55,40.9l-8.42,60.73h17.02l-8.6-60.73ZM267.04,80.7L246.97,2.13h-32.45v152.33h24.34V56.19l25.38,98.27h27.13V2.13h-24.34v78.58ZM390.54,154.46h-26.96l-4.19-29.13h-23.61l-4.25,29.13h-25.26L331.08,2.13h34.66l24.81,152.33ZM347.47,40.9l-8.42,60.73h17.02l-8.6-60.73Z" style="fill:url(#Dégradé_sans_nom_3624);"/><path id="Chain" d="M752.54,38.32v17.48h-25.61v-18.97c0-8.12-3.25-12.07-9.94-12.07s-9.94,3.95-9.94,12.07v83.13c0,7.98,3.25,11.86,9.94,11.86s9.94-3.88,9.94-11.86v-24.5h25.61v22.8c0,24.35-13.19,38.32-36.19,38.32s-36.19-13.97-36.19-38.32V38.32c0-24.35,13.19-38.32,36.19-38.32s36.19,13.97,36.19,38.32ZM818.99,62.72h-21.59V2.13h-26.89v152.33h26.89v-66.97h21.59v66.97h26.89V2.13h-26.89v60.6ZM920.25,2.13l24.81,152.33h-26.96l-4.19-29.13h-23.61l-4.25,29.13h-25.26l.33-2.03L885.59,2.13h34.66ZM901.98,40.9l-8.42,60.73h17.02l-8.6-60.73ZM959.95,154.46h26.89V2.13h-26.89v152.33ZM1060.73,2.13v78.57l-20.07-78.57h-32.45v152.33h24.34V56.19l25.38,98.27h27.13V2.13h-24.34Z" style="fill:url(#Dégradé_sans_nom_4696);"/></g><g id="Logo_V2_Noir"><polyline points="470.4 58.39 533.31 4.86 626.16 4.86 603.16 24.43 547.89 24.43 507.98 58.39"/><polyline points="464.24 63.63 432.24 90.86 407.49 111.92 511.83 111.92 523.95 101.61 511.32 90.86 469.82 90.86 501.82 63.63"/><polyline points="592 103.22 557.17 132.86 534.51 152.14 440.83 152.14 463.49 132.86 527.45 132.86 562.28 103.22"/><polyline points="568.44 97.98 601.63 69.74 555.87 69.74 543.32 59.06 555.08 49.06 655.66 49.06 631.35 69.74 598.16 97.98"/></g></svg>